<svg xmlns="http://www.w3.org/2000/svg" viewBox="0 0 640 158" width="640" height="158">

  <!-- ═══════════════════════════════════════
       ICON MARK  (fits 0,0 → 178,158)
  ═══════════════════════════════════════ -->

  <!-- Dark-navy M letterform
       Two arched "legs" sharing a center valley at ≈(78,80) -->
  <path fill="#17284a" d="
    M 12,152
    C 11,90  16,50  30,30
    C 40,16  52,5   64,4
    C 56,9   48,25  48,48
    C 48,66  58,78  78,82
    C 98,78 108,66 108,48
    C 108,25 100,9  92,4
    C 104,5  116,16 126,30
    C 140,50 145,90 144,152
    Z
  "/>

  <!-- Gold / tan ribbon — sweeps lower-left → upper-right
       Tapered strip, ~18 px wide at mid-point -->
  <path fill="#b8902a" d="
    M 22,150
    C 42,118  64,90   82,74
    C 100,58  122,34  146,8
    C 150,12  156,18  160,26
    C 136,50  112,76  96,90
    C 76,108  54,132  38,156
    Z
  "/>

  <!-- Sky-blue ribbon — sweeps lower-left → upper-right
       Positioned ~30 px to the right of gold, tail extends further -->
  <path fill="#2dabd4" d="
    M 52,150
    C 72,118  94,90  112,74
    C 130,58  152,32  174,6
    C 178,10  184,16  188,24
    C 164,48  140,74  124,90
    C 104,108  82,132  68,156
    Z
  "/>

  <!-- ═══════════════════════════════════════
       WORDMARK  — bold navy "MENASTA"
  ═══════════════════════════════════════ -->
  <text
    x="206" y="114"
    font-family="'Inter','Helvetica Neue','Arial Black',Arial,sans-serif"
    font-size="80"
    font-weight="900"
    letter-spacing="2"
    fill="#17284a">MENASTA</text>
</svg>
